<?xml version="1.0" encoding="utf-8"?>
<!DOCTYPE svg PUBLIC "-//W3C//DTD SVG 1.0//EN" "http://www.w3.org/TR/2001/REC-SVG-20010904/DTD/svg10.dtd">
<svg version="1.0" xmlns="http://www.w3.org/2000/svg" width="1254px" height="1254px" viewBox="0 0 1254 1254" preserveAspectRatio="xMidYMid meet">
 <g fill="#074340">
  <path d="M0 627 c0 -627 0 -627 627 -627 627 0 627 0 627 627 0 627 0 627 -627 627 -627 0 -627 0 -627 -627z m588.55 366.53 c7.10 -5.02 7.84 -8.45 7.84 -34.90 0 -22.17 -0.12 -24.12 -2.69 -29.15 -4.90 -9.67 -7.23 -10.29 -38.94 -11.14 -35.02 -0.98 -51.07 -3.55 -73.72 -11.63 -45.92 -16.53 -82.05 -54.62 -98.34 -103.85 -5.27 -15.92 -7.84 -28.41 -9.43 -46.66 -1.59 -17.76 -0.49 -53.27 1.96 -64.29 6.86 -31.47 24.86 -52.78 51.19 -60.62 11.27 -3.31 31.47 -3.67 48.13 -0.73 19.47 3.31 52.90 7.10 77.15 8.69 35.76 2.45 36.86 2.57 40.78 4.90 7.96 4.90 8.08 5.88 8.82 40.41 0.61 32.45 0.86 33.68 6.37 38.82 5.76 5.39 29.76 7.23 37.72 2.94 9.06 -4.78 9.06 -5.14 9.80 -41.27 0.61 -32.33 0.61 -32.33 5.76 -37.47 5.14 -5.14 5.14 -5.14 27.55 -6.74 30.98 -2.20 56.70 -4.90 81.19 -8.45 11.51 -1.71 26.94 -3.31 34.41 -3.80 11.88 -0.61 14.70 -0.37 22.66 2.08 37.35 11.27 56.70 48.98 49.96 97.48 -2.69 19.72 -11.02 36.37 -25.47 50.82 -7.59 7.59 -11.51 10.41 -20.94 14.94 -22.41 11.02 -22.78 11.02 -92.46 11.76 -59.64 0.73 -61.35 0.86 -66.13 3.31 -5.88 3.18 -11.02 8.20 -13.84 13.35 -1.84 3.31 -2.08 11.51 -2.08 83.27 0 76.17 0.12 79.72 2.33 83.03 5.02 7.47 10.41 8.45 36.98 6.49 22.53 -1.71 26.45 -2.82 31.47 -9.55 3.80 -5.14 4.41 -12.12 4.41 -53.88 0.12 -38.82 0.12 -38.82 3.92 -43.23 6.37 -7.23 8.57 -7.59 39.68 -8.45 26.08 -0.73 41.76 -2.20 55.84 -5.51 46.78 -10.78 86.21 -41.02 107.03 -82.17 14.70 -29.15 21.80 -63.56 18.98 -91.85 -4.41 -43.23 -20.70 -79.97 -48.13 -108.62 -10.16 -10.53 -10.78 -11.51 -10.41 -15.92 0.37 -4.29 0.98 -5.02 9.43 -10.16 5.02 -3.06 13.84 -10.16 19.72 -15.92 17.39 -17.02 21.31 -28.78 14.21 -42.74 -11.51 -22.41 -48.13 -42.74 -102.99 -57.07 -15.06 -3.92 -45.43 -10.41 -48.98 -10.41 -1.59 0 -12 13.47 -11.14 14.45 0.37 0.24 7.23 1.71 15.31 3.31 49.60 9.67 86.33 25.96 93.68 41.51 2.45 5.14 2.57 17.63 0.24 23.15 -3.55 8.57 -23.76 21.68 -45.43 29.39 -21.92 7.84 -60.86 16.41 -95.15 20.94 -42.25 5.63 -54.37 6.25 -122.22 6.25 -58.54 -0.12 -66.62 -0.37 -89.89 -2.82 -80.09 -8.82 -138.26 -24.98 -160.67 -44.70 -6.98 -6.12 -9.06 -10.78 -9.06 -20.45 0 -9.31 1.84 -12.86 10.65 -20.70 6.98 -6.25 24.37 -16.04 28.41 -16.04 1.10 0 3.06 -0.73 4.41 -1.71 3.92 -2.69 35.02 -11.14 54.62 -14.82 17.88 -3.31 17.88 -3.31 15.06 -10.90 -1.47 -4.29 -3.43 -7.59 -4.65 -7.84 -2.94 -0.61 -34.53 5.39 -53.88 10.29 -35.02 8.82 -63.19 20.21 -83.40 33.68 -15.80 10.65 -26.57 25.35 -26.82 36.62 -0.24 14.08 15.80 33.06 41.88 49.47 4.41 2.82 5.14 3.80 5.14 7.47 0 3.67 -1.35 5.63 -9.67 14.08 -35.51 35.76 -54.13 92.95 -50.33 153.69 4.65 73.35 29.76 130.18 77.89 176.96 14.82 14.33 22.41 20.45 39.68 31.84 41.51 27.31 102.87 44.33 156.75 43.60 12.49 -0.12 14.57 -0.49 17.88 -2.82z m50.21 -492.17 c9.43 -2.08 26.33 -7.72 27.92 -9.06 0.49 -0.61 -1.59 -8.82 -4.78 -18.25 -6.37 -19.10 -5.51 -18.37 -16.53 -15.43 -4.04 1.10 -12.37 1.84 -20.94 1.84 -9.92 0 -14.70 0.49 -15.55 1.59 -0.98 1.22 -14.94 35.76 -14.94 36.98 0 0.61 11.88 2.94 17.76 3.43 11.51 1.10 19.35 0.73 27.06 -1.10z m-66.86 -32.94 c4.04 -10.04 7.23 -18.25 6.98 -18.37 -8.69 -4.78 -19.96 -16.41 -25.47 -25.96 -1.59 -2.94 -3.31 -5.27 -3.80 -5.27 -0.86 0 -29.27 14.33 -30.13 15.31 -0.24 0.24 1.96 5.02 4.78 10.53 6.12 11.76 16.90 25.72 24.49 31.96 6.74 5.39 14.82 10.90 15.31 10.41 0.24 -0.24 3.80 -8.57 7.84 -18.61z m133.36 0.12 c8.82 -6.74 26.21 -25.23 34.78 -36.74 7.59 -10.16 14.82 -21.43 14.21 -22.04 -0.49 -0.37 -30.49 -11.76 -31.11 -11.76 -0.24 0 -3.06 4.04 -6.25 8.94 -3.31 4.78 -11.63 14.57 -18.74 21.55 -12.74 12.61 -12.74 12.61 -7.47 29.02 2.94 9.06 5.88 16.41 6.49 16.41 0.61 0 4.29 -2.45 8.08 -5.39z m-62.46 -41.15 c4.41 -1.35 11.39 -4.41 15.43 -6.74 8.69 -5.27 25.59 -21.55 33.06 -31.84 16.53 -23.02 24.37 -53.15 19.72 -75.07 -6 -28.17 -25.72 -47.76 -49.35 -48.98 -23.63 -1.35 -45.68 8.69 -64.29 29.15 -19.35 21.06 -32.08 54.25 -29.76 76.91 0.98 9.31 5.63 24.49 9.55 30.86 13.96 23.02 40.17 33.31 65.64 25.72z m-126.01 -27.19 c2.33 -1.47 8.69 -5.02 14.08 -7.84 9.67 -5.27 9.67 -5.27 9.43 -19.72 -0.24 -7.96 0.24 -18.25 0.98 -23.02 0.73 -4.65 1.59 -10.53 1.96 -12.86 0.73 -4.29 0.73 -4.29 -11.76 -9.18 -6.98 -2.69 -12.98 -5.02 -13.47 -5.27 -1.22 -0.49 -5.76 15.55 -8.08 28.53 -3.31 18.12 -2.45 52.05 1.10 52.05 0.86 0 3.43 -1.22 5.76 -2.69z m257.05 -33.80 c4.65 -15.19 7.35 -28.66 8.45 -42.49 0.86 -11.39 0.12 -28.04 -1.35 -29.51 -0.49 -0.49 -5.63 1.35 -11.51 4.16 -6 2.69 -13.84 6.25 -17.51 7.72 -3.67 1.47 -7.35 3.18 -8.08 3.80 -0.86 0.61 -1.59 8.08 -2.08 19.72 -0.37 12.74 -1.35 21.43 -2.94 27.55 -2.45 9.06 -2.45 9.06 0.12 10.16 9.06 4.04 29.64 11.63 30.37 11.27 0.49 -0.24 2.57 -5.88 4.53 -12.37z m-210.51 -75.80 c4.29 -7.23 10.04 -14.33 17.39 -21.43 11.02 -10.78 11.02 -10.78 5.27 -25.47 -4.90 -12.49 -6 -14.57 -7.72 -13.59 -3.31 1.71 -21.19 20.82 -27.80 29.39 -6.25 8.33 -20.45 30.86 -19.72 31.59 0.49 0.49 24.37 10.04 25.35 10.04 0.37 0.12 3.67 -4.65 7.23 -10.53z m186.14 -18.37 c5.76 -2.69 13.35 -6.25 16.90 -7.72 3.43 -1.47 6.37 -3.31 6.37 -3.92 0 -3.18 -12.25 -24.49 -18.61 -32.33 -9.80 -12.12 -31.84 -28.29 -37.23 -27.19 -1.35 0.24 -4.65 7.23 -9.67 20.45 -7.72 20.08 -7.72 20.08 -0.73 24.61 8.57 5.63 18.37 16.16 23.51 25.59 4.53 8.20 3.43 8.20 19.47 0.49z m-118.79 -33.55 c5.27 -1.71 12.86 -2.94 22.66 -3.43 16.16 -0.86 14.08 1.84 27.68 -34.90 3.55 -9.67 3.55 -9.67 -8.94 -8.82 -21.92 1.47 -39.68 6 -56.45 14.45 -4.04 1.96 -6.98 4.16 -6.74 5.02 4.41 12.98 11.63 30.25 12.61 30.25 0.61 0 4.78 -1.22 9.18 -2.57z"/>
 </g>
 <g fill="#fefefe">
  <path d="M542.13 999.28 c-59.03 -5.51 -108.62 -24 -150.87 -56.21 -10.90 -8.33 -32.82 -29.88 -42.25 -41.76 -34.78 -43.60 -52.41 -92.09 -56.33 -155.28 -4.16 -65.39 13.96 -122.83 50.45 -159.69 9.31 -9.43 9.80 -10.04 7.59 -11.63 -25.84 -18 -36 -27.55 -41.76 -39.31 -4.78 -9.67 -4.78 -22.53 -0.12 -31.47 12.61 -24.25 50.94 -44.94 110.46 -59.39 18.12 -4.41 52.29 -11.02 57.19 -11.02 1.47 0 2.82 2.08 4.29 6.49 1.10 3.43 3.06 8.45 4.41 11.14 1.35 2.57 1.96 5.14 1.35 5.63 -0.49 0.49 -9.18 2.33 -19.35 4.29 -19.84 3.67 -51.19 12.12 -55.11 14.82 -1.35 0.98 -3.31 1.71 -4.41 1.71 -4.04 0 -21.43 9.80 -28.41 16.04 -7.84 6.98 -10.65 11.39 -10.65 17.02 0 9.92 8.08 18.49 26.70 27.92 29.39 15.06 77.76 26.33 143.03 33.55 23.02 2.45 31.59 2.69 86.21 2.82 63.92 0 76.66 -0.61 118.54 -6.25 34.29 -4.53 73.23 -13.10 95.15 -20.94 24.61 -8.82 44.82 -22.90 46.54 -32.45 1.59 -8.45 -0.24 -13.10 -7.84 -20.45 -14.45 -14.21 -53.39 -28.41 -97.48 -35.76 -4.65 -0.73 -8.94 -1.71 -9.43 -2.20 -0.37 -0.37 2.20 -4.90 5.88 -9.92 3.80 -5.02 7.23 -9.80 7.72 -10.78 1.22 -2.20 22.41 1.35 50.94 8.33 58.90 14.45 98.09 35.39 110.34 58.90 2.94 5.51 3.55 8.08 3.55 15.80 0 7.72 -0.61 10.41 -3.55 16.53 -4.53 9.31 -21.55 26.33 -33.68 33.55 -4.65 2.82 -8.94 5.63 -9.31 6.37 -0.49 0.61 4.04 6.37 10.04 12.49 51.68 53.88 63.68 139.24 29.15 207.69 -20.82 41.27 -60.13 71.52 -107.03 82.29 -14.08 3.31 -29.76 4.78 -55.84 5.51 -31.11 0.86 -33.31 1.22 -39.68 8.45 -3.80 4.41 -3.80 4.41 -3.92 43.23 0 41.76 -0.61 48.74 -4.41 53.88 -5.02 6.74 -8.82 7.84 -32.70 9.67 -30.25 2.33 -37.84 1.10 -43.11 -6.61 -2.20 -3.31 -2.33 -6.98 -2.33 -86.70 0 -75.19 0.24 -83.64 2.08 -86.95 2.82 -5.14 7.96 -10.16 13.84 -13.35 4.78 -2.45 6.49 -2.57 66.13 -3.31 69.68 -0.73 70.05 -0.73 92.46 -11.76 24.86 -12 42.49 -36.98 46.41 -65.76 1.84 -12.74 1.71 -19.23 -0.49 -32.08 -5.02 -28.53 -23.51 -50.21 -49.47 -58.05 -10.53 -3.31 -15.55 -3.06 -49.11 1.71 -25.47 3.67 -51.19 6.37 -81.80 8.45 -22.41 1.59 -22.41 1.59 -27.55 6.74 -5.14 5.14 -5.14 5.14 -5.76 37.47 -0.61 30.13 -0.73 32.70 -3.06 35.76 -4.65 6.12 -9.67 7.84 -23.39 7.84 -20.57 0 -28.17 -2.45 -32.70 -10.41 -0.98 -1.59 -1.71 -13.35 -2.08 -33.68 -0.73 -34.53 -0.86 -35.51 -8.82 -40.41 -3.92 -2.33 -5.02 -2.45 -40.78 -4.90 -24 -1.59 -57.56 -5.39 -77.15 -8.69 -26.94 -4.65 -45.43 -0.98 -64.29 12.74 -12.12 8.94 -23.39 28.53 -27.68 48.62 -4.04 18.61 -3.31 58.29 1.35 81.44 12.12 59.27 51.68 107.03 104.46 126.01 22.66 8.08 38.70 10.65 73.72 11.63 31.72 0.86 34.04 1.47 38.94 11.14 2.57 5.14 2.69 6.86 2.69 32.82 0 30.37 -0.61 33.43 -7.84 38.58 -3.43 2.45 -5.27 2.69 -21.55 2.82 -9.80 0.12 -22.53 -0.24 -28.53 -0.73z"/>
 </g>
 <g fill="#f4b32b">
  <path d="M609.24 506.25 c-10.65 -1.35 -21.43 -3.43 -21.43 -4.29 0 -1.59 16.16 -42 17.39 -43.60 0.86 -1.10 5.51 -1.59 14.94 -1.59 9.55 0 17.02 -0.73 24.86 -2.57 6.25 -1.47 12.12 -2.33 13.10 -1.96 0.86 0.37 4.78 9.80 8.45 20.94 7.84 23.39 8.20 21.80 -6.61 26.82 -18.74 6.37 -33.55 8.20 -50.70 6.25z"/>
  <path d="M560.75 491.31 c-17.76 -10.41 -31.23 -25.35 -41.51 -45.80 -5.02 -10.16 -5.88 -12.74 -4.65 -13.96 2.94 -2.94 32.82 -17.63 35.76 -17.63 2.20 0 3.80 1.47 6.37 5.88 5.14 9.06 13.10 17.76 20.94 23.02 3.92 2.57 7.23 4.78 7.47 4.90 0.24 0.12 -2.33 6.74 -5.63 14.70 -3.31 8.08 -7.59 18.61 -9.43 23.51 -1.96 4.78 -3.55 8.82 -3.55 8.82 -0.12 0 -2.69 -1.59 -5.76 -3.43z"/>
  <path d="M686.76 460.33 c-6.98 -21.06 -6.98 -21.06 7.35 -35.27 8.69 -8.57 16.53 -17.76 19.84 -23.02 3.67 -5.88 6.25 -8.94 7.84 -8.94 2.45 0 37.47 12.98 38.82 14.45 0.98 1.10 -8.45 16.65 -17.27 28.53 -12.61 17.02 -42.98 45.19 -48.62 45.19 -0.61 0 -4.16 -9.43 -7.96 -20.94z"/>
  <path d="M604.71 430.70 c-24.37 -8.33 -38.94 -29.76 -41.02 -60.01 -3.06 -48.25 34.41 -101.28 77.15 -108.62 4.41 -0.86 13.72 -1.22 20.70 -0.98 11.14 0.37 13.59 0.86 20.70 4.16 22.53 10.78 35.27 35.88 33.80 67.23 -1.35 29.39 -13.10 54.37 -36.62 77.40 -18 17.76 -31.47 23.63 -53.76 23.63 -10.04 0 -14.45 -0.61 -20.94 -2.82z"/>
  <path d="M506.62 408.16 c-1.59 -2.45 -3.43 -31.35 -2.82 -40.78 1.71 -22.66 8.08 -49.23 12 -49.96 1.47 -0.24 32.33 11.02 33.55 12.37 0.24 0.12 -0.86 4.90 -2.20 10.65 -2.45 10.29 -3.67 33.43 -2.20 44.70 0.61 4.90 0.61 4.90 -11.02 11.39 -18.25 10.04 -26.21 13.47 -27.31 11.63z"/>
  <path d="M751.54 377.67 c-10.78 -4.16 -19.72 -7.96 -19.96 -8.20 -0.37 -0.24 0.86 -6 2.69 -12.61 2.69 -9.92 3.31 -15.55 3.67 -30.49 0.37 -12.37 0.98 -18.74 2.08 -19.72 0.73 -0.73 5.88 -3.18 11.27 -5.39 5.39 -2.20 12.98 -5.51 16.78 -7.47 6 -3.06 16.78 -6 16.90 -4.65 0 0.24 0.61 5.76 1.22 12.12 1.22 12.74 -0.12 32.33 -3.18 47.64 -2.33 12 -8.45 31.96 -10.53 34.53 -1.47 1.71 -3.55 1.22 -20.94 -5.76z"/>
  <path d="M543.11 301.38 c-8.08 -3.18 -15.68 -6.12 -16.78 -6.61 -2.08 -0.73 -1.96 -1.10 0.12 -6.12 3.06 -6.98 13.23 -23.39 20.57 -33.06 7.59 -9.92 24.61 -27.55 28.78 -29.76 6.74 -3.55 7.23 -2.94 14.70 16.29 6.86 18 6.86 18 -5.63 30.37 -9.31 9.18 -14.08 15.06 -18.98 23.63 -3.67 6.12 -6.98 11.27 -7.35 11.14 -0.37 0 -7.35 -2.69 -15.43 -5.88z"/>
  <path d="M726.81 276.52 c-4.78 -9.55 -15.92 -21.80 -25.23 -27.43 -3.92 -2.45 -7.23 -5.14 -7.23 -5.88 0 -1.84 16.04 -43.84 17.51 -45.68 4.90 -6.49 31.72 9.43 46.05 27.31 6.86 8.57 19.23 31.11 19.96 36.62 0.37 2.69 -1.22 3.67 -22.90 13.72 -14.33 6.61 -20.08 8.94 -22.66 8.82 -0.98 0 -3.43 -3.31 -5.51 -7.47z"/>
  <path d="M610.10 228.14 c-5.39 -14.45 -6.98 -19.72 -6 -20.94 3.43 -4.29 24.61 -12.86 40.04 -16.16 11.27 -2.45 38.21 -4.53 43.23 -3.18 3.06 0.73 3.06 0.73 -2.82 16.29 -14.08 37.84 -11.02 33.92 -27.55 34.78 -11.76 0.61 -17.02 1.59 -26.45 4.65 -6.49 2.08 -12 3.80 -12.37 3.80 -0.37 0 -4.04 -8.69 -8.08 -19.23z"/>
 </g>
</svg>